DVD Description
Perfect for 3-5 year olds who love to be busy - just like Fifi - this fun-packed DVD is based on the popular children's TV programme and includes another bumper collection of colourful episodes from Fifi and the Flowertots.

Fifi Forget-Me-Not is full of energy and creativity, always smiling and looking for excitement! She lives in Forget-Me-Not Cottage and is always busy with her friends Bumble, Primrose and Violet, out gardening or cooking or keeping a watchful eye on the naughty Stingo and Slugsy. These two are always looking for mischief and getting into trouble! But with so much to remember all of the time, Fifi often forgets things which leads to all kinds of wonderful adventures! Enjoy all of the fun, mayhem and laughter in these 10 great stories with songs:

Fifi’s Filmshow – song
Rockabye Stingo – song
Fizzy Business
Violet’s Party
Fifi’s Pancake Fun – song
Compost Chaos
Just One Hornetto
Flowertot Babysitter
Violet’s Big Bracelet
The Wasp That Cried ouch
Synopsis
Fifi Forget-Me-Not is full of energy and creativity, always smiling and looking for excitement. Fifi lives in Forget-Me-Not Cottage and is always busy with her friends Bumble, Primrose and Violet, out gardening or cooking or keeping a watchful eye on the naughty Stingo and Slugsy. These two are always looking for mischief and getting into trouble! But with so much to remember all of the time, Fifi often forgets things which leads to all kinds of wonderful adventures. Enjoy all of the fun, mayhem and laughter in 10 great new stories 'Fifi's Filmshow', 'Rockabye Stingo', 'Fizzy Business', 'Violet's Party', 'Fifi's Pancake Fun', 'Compost Chaos', 'Just One Hornetto', 'Flowertot Babysitter', 'Violet’s Big Bracelet' and 'The Wasp That Cried Ouch'.

Format : MPEG-4
Format profile : Base Media / Version 2
Codec ID : mp42
File size : 1 000 MiB
Duration : 1h 40mn
Overall bit rate : 1 391 Kbps
Encoded date : UTC 2010-02-14 09:02:43
Tagged date : UTC 2010-02-14 12:58:03
Writing application : HandBrake 0.9.3 2008112300

Video
ID : 1
Format : AVC
Format/Info : Advanced Video Codec
Format profile : Main@L4.0
Format settings, CABAC : Yes
Format settings, ReFrames : 3 frames
Codec ID : avc1
Codec ID/Info : Advanced Video Coding
Duration : 1h 40mn
Bit rate mode : Variable
Bit rate : 1 227 Kbps
Width : 702 pixels
Height : 574 pixels
Display aspect ratio : 16:9
Frame rate mode : Variable
Frame rate : 25.000 fps
Minimum frame rate : 12.500 fps
Maximum frame rate : 32.587 fps
Resolution : 8 bits
Colorimetry : 4:2:0
Scan type : Progressive
Bits/(Pixel*Frame) : 0.122
Stream size : 882 MiB (88%)
Writing library : x264 core 65

Language : English
Encoded date : UTC 2010-02-14 09:02:43
Tagged date : UTC 2010-02-14 12:58:03
Color primaries : BT.601-6 525, BT.1358 525, BT.1700 NTSC, SMPTE 170M
Transfer characteristics : BT.709-5, BT.1361
Matrix coefficients : BT.601-6 525, BT.1358 525, BT.1700 NTSC, SMPTE 170M

Audio
ID : 2
Format : AAC
Format/Info : Advanced Audio Codec
Format version : Version 4
Format profile : LC
Format settings, SBR : No
Codec ID : 40
Duration : 1h 40mn
Bit rate mode : Variable
Bit rate : 160 Kbps
Maximum bit rate : 240 Kbps
Channel(s) : 2 channels
Channel positions : L R
Sampling rate : 48.0 KHz
Stream size : 115 MiB (12%)
Language : English
Encoded date : UTC 2010-02-14 09:02:43
Tagged date : UTC 2010-02-14 12:58:00